<svg version="1.1" id="Layer_1" xmlns="http://www.w3.org/2000/svg" xmlns:xlink="http://www.w3.org/1999/xlink" x="0px" y="0px"
	 width="100%" viewBox="0 0 4349 3911" enable-background="new 0 0 4349 3911" xml:space="preserve">
<path fill="#FFFFFF" opacity="1.000000" stroke="none" 
	d="
M3448.000000,3916.000000 
	C2610.559082,3916.000000 1773.118408,3916.000000 933.652710,3915.024414 
	C931.627869,3914.048584 932.142395,3912.129883 933.755554,3911.854980 
	C953.130188,3908.799072 970.897278,3906.053711 988.652039,3903.230713 
	C1071.492554,3890.059082 1154.348755,3876.984375 1237.160522,3863.633789 
	C1282.820679,3856.272705 1321.709229,3835.871338 1352.379150,3801.021240 
	C1393.777100,3753.980957 1407.761108,3698.941406 1398.469727,3637.517334 
	C1395.083984,3615.135254 1391.340820,3592.807617 1387.803711,3570.448242 
	C1380.625000,3525.065430 1373.519165,3479.670898 1366.302002,3434.294189 
	C1358.982178,3388.271729 1351.488403,3342.276855 1344.208984,3296.248047 
	C1335.575195,3241.656982 1327.147217,3187.033691 1318.523560,3132.441162 
	C1308.341797,3067.986572 1298.114502,3003.539062 1287.747070,2939.114258 
	C1285.426147,2924.691406 1282.440796,2910.375488 1279.965698,2894.323242 
	C1275.589355,2863.039551 1271.109863,2833.427246 1266.406982,2803.850586 
	C1256.478394,2741.407227 1246.324097,2678.999268 1236.464111,2616.545166 
	C1225.150269,2544.881592 1214.132935,2473.171387 1202.844360,2401.503662 
	C1189.899780,2319.322510 1176.801636,2237.165771 1163.764893,2154.999268 
	C1156.053711,2106.397949 1134.350952,2065.356934 1096.325073,2033.858398 
	C1053.724976,1998.570557 1004.369202,1983.380859 949.430542,1990.139038 
	C907.829407,1995.256348 866.509155,2002.677490 825.084473,2009.203979 
	C759.342224,2019.561523 693.644958,2030.208130 627.875671,2040.390137 
	C577.097595,2048.251221 534.393494,2070.485840 501.755310,2110.547363 
	C463.606079,2157.373779 452.391388,2211.276123 461.599609,2270.066406 
	C470.044189,2323.981201 478.921356,2377.827881 487.532867,2431.716797 
	C495.410187,2481.010986 503.299225,2530.303711 510.907074,2579.639893 
	C512.312073,2588.750977 512.401428,2598.065430 511.257690,2607.276367 
	C479.359314,2612.263672 449.301239,2617.260742 417.630188,2622.235840 
	C410.693268,2622.871826 405.369232,2623.529785 399.580353,2622.608643 
	C397.761993,2611.140381 396.388580,2601.253662 395.058167,2591.361084 
	C385.025146,2516.758301 378.191315,2441.828613 373.064697,2366.757812 
	C368.889679,2305.622070 366.597443,2244.367920 367.015930,2183.083496 
	C367.347809,2134.479736 368.204712,2085.891846 371.361633,2037.319702 
	C374.646423,1986.781128 379.093506,1936.378540 385.304504,1886.159424 
	C392.989014,1824.026367 403.316132,1762.284424 416.197113,1700.992310 
	C434.698700,1612.955444 457.995239,1526.224365 486.691589,1440.947388 
	C522.859314,1333.467773 566.370483,1229.087158 619.130798,1128.675537 
	C637.402649,1093.901123 656.984192,1059.813843 676.066895,1025.467896 
	C678.592834,1020.921509 680.561279,1015.612244 687.593262,1015.493958 
	C726.547852,1053.304077 770.799744,1064.025024 821.071960,1048.030762 
	C848.071655,1039.440796 868.283081,1021.622192 885.247498,999.290894 
	C943.423218,922.710754 1008.040527,851.922791 1078.100586,786.059204 
	C1192.900879,678.135254 1320.240601,587.899597 1460.355591,515.887695 
	C1617.948975,434.892883 1784.168823,380.507477 1959.724487,354.899933 
	C2023.751221,345.560577 2088.028076,339.746918 2152.653564,338.503571 
	C2230.651123,337.002960 2308.392822,340.864014 2385.844238,351.104553 
	C2453.932861,360.107117 2521.142334,373.104126 2587.526367,390.622833 
	C2707.118896,422.183319 2821.407227,467.309784 2930.598145,525.257019 
	C3099.901123,615.105408 3249.217285,731.043274 3379.766357,871.233154 
	C3417.020752,911.238770 3451.748047,953.399109 3485.693359,996.253723 
	C3518.342529,1037.472046 3561.228027,1053.696777 3613.139893,1044.067017 
	C3638.022949,1039.451416 3659.368408,1027.566284 3678.439453,1009.910400 
	C3683.299072,1015.161621 3687.405762,1019.560303 3690.241211,1024.664917 
	C3711.579102,1063.076050 3733.631104,1101.131958 3753.660400,1140.220703 
	C3829.559326,1288.343750 3887.372314,1443.358276 3928.188232,1604.696167 
	C3954.345947,1708.093018 3973.298828,1812.777832 3985.135986,1918.816406 
	C3991.787598,1978.403442 3996.387451,2038.138672 3998.485596,2097.976807 
	C4000.700928,2161.177490 4000.477783,2224.432129 3997.472900,2287.708008 
	C3994.535400,2349.569336 3991.159668,2411.359863 3984.561279,2472.932373 
	C3979.171143,2523.232422 3973.102539,2573.459961 3965.773926,2623.675293 
	C3957.953125,2623.067139 3951.693359,2622.502930 3944.017822,2621.249023 
	C3912.647461,2615.971191 3882.692871,2611.382568 3852.627197,2605.208008 
	C3858.799805,2563.542480 3865.091309,2523.464355 3871.364502,2483.383301 
	C3882.683105,2411.065918 3893.659668,2338.692871 3905.439209,2266.450684 
	C3911.498779,2229.289307 3908.515381,2193.258545 3893.589600,2158.836182 
	C3863.849365,2090.249512 3810.852539,2051.629639 3737.383057,2040.288818 
	C3691.350098,2033.183228 3645.321777,2026.046021 3599.307617,2018.819214 
	C3540.807373,2009.631226 3482.307129,2000.439941 3423.841309,1991.036011 
	C3403.243408,1987.722778 3382.825195,1988.158691 3362.276367,1991.473389 
	C3284.645020,2003.995972 3217.803711,2065.575684 3203.904053,2150.413086 
	C3196.696533,2194.405273 3190.167480,2238.508545 3183.146973,2282.531982 
	C3167.744629,2379.117676 3152.152588,2475.672852 3136.772705,2572.261963 
	C3122.020508,2664.908691 3107.364014,2757.571045 3092.854004,2850.255859 
	C3090.493652,2865.332275 3089.109131,2880.561035 3086.336914,2896.977051 
	C3081.531006,2922.548340 3077.653809,2946.860596 3073.792969,2971.175781 
	C3065.234863,3025.073486 3056.630127,3078.963867 3048.147705,3132.873535 
	C3039.562988,3187.432861 3031.192871,3242.026367 3022.561768,3296.578125 
	C3013.930664,3351.131104 3005.062012,3405.646729 2996.355469,3460.187988 
	C2987.333984,3516.703369 2978.551758,3573.257812 2969.328125,3629.739746 
	C2964.671631,3658.254883 2963.365479,3686.592041 2969.943848,3714.997803 
	C2987.956055,3792.773926 3051.148682,3852.989990 3133.422119,3864.225098 
	C3169.679688,3869.176270 3205.759277,3875.435059 3241.910889,3881.154053 
	C3299.083252,3890.198242 3356.301025,3898.979004 3413.373291,3908.616455 
	C3424.939453,3910.569580 3437.338623,3909.532227 3448.000000,3916.000000 
z"/>
<path fill="#0571B2" opacity="1.000000" stroke="none" 
	d="
M3967.334473,2623.719482 
	C3973.102539,2573.459961 3979.171143,2523.232422 3984.561279,2472.932373 
	C3991.159668,2411.359863 3994.535400,2349.569336 3997.472900,2287.708008 
	C4000.477783,2224.432129 4000.700928,2161.177490 3998.485596,2097.976807 
	C3996.387451,2038.138672 3991.787598,1978.403442 3985.135986,1918.816406 
	C3973.298828,1812.777832 3954.345947,1708.093018 3928.188232,1604.696167 
	C3887.372314,1443.358276 3829.559326,1288.343750 3753.660400,1140.220703 
	C3733.631104,1101.131958 3711.579102,1063.076050 3690.241211,1024.664917 
	C3687.405762,1019.560303 3683.299072,1015.161621 3678.421875,1008.573730 
	C3674.919922,1001.216248 3673.459229,995.318359 3670.500244,990.305237 
	C3663.054932,977.692749 3655.003418,965.434631 3647.072266,953.113220 
	C3583.831299,854.865356 3512.699707,762.637573 3433.481689,676.815552 
	C3371.960449,610.165344 3306.229004,547.776245 3235.532959,490.840088 
	C3177.395264,444.018127 3116.967041,400.342407 3053.561768,360.827759 
	C2978.220459,313.874359 2899.751953,272.883820 2818.192383,237.964981 
	C2729.901367,200.164383 2638.886963,170.338715 2545.201416,149.049622 
	C2488.124268,136.079346 2430.626953,125.236519 2372.289795,119.463387 
	C2357.733154,118.022827 2343.204102,116.273560 2328.630859,115.036888 
	C2301.466553,112.731743 2274.310791,109.494759 2247.095703,108.786331 
	C2175.848389,106.931671 2104.604492,106.990921 2033.635010,115.401085 
	C2004.582886,118.843880 1975.254761,120.444832 1946.425415,125.163879 
	C1903.796265,132.141846 1861.191040,139.818253 1819.119507,149.548218 
	C1690.126709,179.380539 1566.663086,224.881165 1448.469116,284.470825 
	C1403.861206,306.960632 1360.172241,331.255646 1317.841309,357.824158 
	C1192.630859,436.411011 1077.897949,527.980591 974.654663,633.989563 
	C922.530640,687.509827 873.329102,743.434814 827.143433,802.133423 
	C778.884338,863.467041 734.963806,927.759155 693.741638,993.954163 
	C689.873596,1000.165527 685.819214,1006.406921 686.617920,1014.296509 
	C680.561279,1015.612244 678.592834,1020.921509 676.066895,1025.467896 
	C656.984192,1059.813843 637.402649,1093.901123 619.130798,1128.675537 
	C566.370483,1229.087158 522.859314,1333.467773 486.691589,1440.947388 
	C457.995239,1526.224365 434.698700,1612.955444 416.197113,1700.992310 
	C403.316132,1762.284424 392.989014,1824.026367 385.304504,1886.159424 
	C379.093506,1936.378540 374.646423,1986.781128 371.361633,2037.319702 
	C368.204712,2085.891846 367.347809,2134.479736 367.015930,2183.083496 
	C366.597443,2244.367920 368.889679,2305.622070 373.064697,2366.757812 
	C378.191315,2441.828613 385.025146,2516.758301 395.058167,2591.361084 
	C396.388580,2601.253662 397.761993,2611.140381 399.507568,2624.338379 
	C401.595093,2642.784424 402.926392,2657.973633 405.069946,2673.047363 
	C408.422760,2696.625244 412.286835,2720.131104 416.006683,2743.655762 
	C419.109009,2763.275391 421.650604,2783.015381 425.660126,2802.450439 
	C429.763031,2822.337646 430.247620,2842.627197 427.001740,2861.985352 
	C420.643738,2899.904053 405.320892,2933.843750 376.966766,2961.800537 
	C342.442444,2995.840576 300.725250,3011.167480 253.793777,3015.657715 
	C251.817337,3015.846680 249.764923,3015.875244 247.810944,3015.572266 
	C207.917542,3009.381348 178.413361,2987.462891 171.911606,2945.570801 
	C169.169983,2927.906006 166.484375,2910.223633 163.234909,2892.648926 
	C155.530731,2850.980713 148.785278,2809.177246 143.570938,2767.116211 
	C142.282013,2756.718506 139.457108,2746.511230 137.250595,2734.415039 
	C131.062592,2677.030762 125.016983,2621.442383 118.847542,2565.867676 
	C111.719826,2501.659912 107.848091,2437.185547 105.421066,2372.696045 
	C101.712784,2274.161377 103.166954,2175.655273 111.057251,2077.257568 
	C115.423630,2022.805786 121.057999,1968.516724 128.918549,1914.504150 
	C141.289719,1829.497559 158.066833,1745.347656 179.348953,1662.058594 
	C247.771866,1394.280640 358.781464,1145.766357 514.775452,917.488098 
	C602.666199,788.870483 702.863953,670.722168 815.790771,563.352356 
	C911.665894,472.195129 1014.960876,390.516998 1126.205688,318.914307 
	C1282.254517,218.473511 1448.827026,140.763306 1626.590820,87.177742 
	C1723.019653,58.109966 1821.070068,36.673496 1920.878906,23.078627 
	C1973.686279,15.885789 2026.671021,10.908569 2081.687500,8.149082 
	C2096.784180,8.184850 2110.058594,8.103597 2123.305908,7.462525 
	C2126.252930,7.319917 2129.104492,5.206172 2132.000000,3.999993 
	C2165.416992,4.000000 2198.833984,4.000000 2235.193359,5.278986 
	C2254.782471,7.012088 2271.429443,7.466204 2289.858398,8.017420 
	C2332.736816,11.837244 2373.886719,15.053874 2414.918457,19.391174 
	C2493.175049,27.663359 2570.339600,42.439468 2646.649414,61.367474 
	C2809.704590,101.811996 2964.972412,162.510269 3112.451416,242.959030 
	C3320.905762,356.669312 3503.903809,502.675262 3663.310059,678.435303 
	C3809.311279,839.414673 3928.911133,1018.188354 4023.735352,1213.672119 
	C4068.256592,1305.455200 4106.482422,1399.756836 4138.849121,1496.475464 
	C4177.375000,1611.596191 4206.605469,1729.059692 4227.366699,1848.619873 
	C4236.480469,1901.103027 4244.378418,1953.801880 4248.947266,2006.912598 
	C4252.884277,2052.669922 4256.970215,2098.431885 4259.725098,2144.267822 
	C4261.839844,2179.470703 4262.341797,2214.786377 4262.897949,2250.062256 
	C4263.359863,2279.356934 4263.611816,2308.693604 4262.594727,2337.964111 
	C4261.161621,2379.197510 4258.879395,2420.413574 4256.200195,2461.587646 
	C4253.606934,2501.446045 4250.827148,2541.322266 4246.727051,2581.045654 
	C4241.396484,2632.690918 4234.681152,2684.192871 4228.278320,2737.401855 
	C4225.333008,2756.701660 4222.640625,2774.351807 4220.016113,2792.011719 
	C4217.000488,2812.303955 4214.281250,2832.644043 4211.004395,2852.893555 
	C4206.144043,2882.926758 4201.125488,2912.937744 4195.778809,2942.887695 
	C4187.649902,2988.422852 4156.705078,3013.187988 4111.425293,3015.321045 
	C4099.784180,3015.869629 4087.760742,3012.667725 4076.208008,3009.939453 
	C4032.583008,2999.636719 3997.230469,2976.722168 3970.653564,2940.232666 
	C3947.883301,2908.970215 3939.692871,2873.039062 3936.964355,2835.648926 
	C3936.066895,2823.353027 3939.347168,2810.666504 3941.363525,2798.263672 
	C3944.547363,2778.678467 3948.538330,2759.224609 3951.711182,2739.637939 
	C3955.835693,2714.178223 3959.702393,2688.672363 3963.264893,2663.128662 
	C3965.087891,2650.057373 3966.006836,2636.859863 3967.334473,2623.719482 
z"/>
<path fill="#FFFFFF" opacity="1.000000" stroke="none" 
	d="
M2079.855469,7.830168 
	C2026.671021,10.908569 1973.686279,15.885789 1920.878906,23.078627 
	C1821.070068,36.673496 1723.019653,58.109966 1626.590820,87.177742 
	C1448.827026,140.763306 1282.254517,218.473511 1126.205688,318.914307 
	C1014.960876,390.516998 911.665894,472.195129 815.790771,563.352356 
	C702.863953,670.722168 602.666199,788.870483 514.775452,917.488098 
	C358.781464,1145.766357 247.771866,1394.280640 179.348953,1662.058594 
	C158.066833,1745.347656 141.289719,1829.497559 128.918549,1914.504150 
	C121.057999,1968.516724 115.423630,2022.805786 111.057251,2077.257568 
	C103.166954,2175.655273 101.712784,2274.161377 105.421066,2372.696045 
	C107.848091,2437.185547 111.719826,2501.659912 118.847542,2565.867676 
	C125.016983,2621.442383 131.062592,2677.030762 136.324615,2735.482666 
	C116.213562,2765.947021 103.981621,2796.437256 97.916679,2829.484131 
	C94.178413,2849.853516 94.862236,2870.399414 93.605530,2891.122314 
	C78.930916,2893.197021 65.903732,2894.929443 52.934978,2897.024170 
	C38.740517,2899.317139 26.661846,2905.716797 18.218678,2917.543457 
	C14.850184,2922.261719 12.958831,2928.031982 10.372330,2933.312256 
	C9.038254,2936.035889 6.906622,2936.959473 4.000000,2936.000000 
	C4.000000,1959.008179 4.000000,982.016296 4.000000,4.000000 
	C694.749878,4.000000 1385.500366,4.000000 2078.222656,4.962584 
	C2080.194824,5.925167 2079.855469,7.830168 2079.855469,7.830168 
z"/>
<path fill="#FFFFFF" opacity="1.000000" stroke="none" 
	d="
M4228.562012,2735.756592 
	C4234.681152,2684.192871 4241.396484,2632.690918 4246.727051,2581.045654 
	C4250.827148,2541.322266 4253.606934,2501.446045 4256.200195,2461.587646 
	C4258.879395,2420.413574 4261.161621,2379.197510 4262.594727,2337.964111 
	C4263.611816,2308.693604 4263.359863,2279.356934 4262.897949,2250.062256 
	C4262.341797,2214.786377 4261.839844,2179.470703 4259.725098,2144.267822 
	C4256.970215,2098.431885 4252.884277,2052.669922 4248.947266,2006.912598 
	C4244.378418,1953.801880 4236.480469,1901.103027 4227.366699,1848.619873 
	C4206.605469,1729.059692 4177.375000,1611.596191 4138.849121,1496.475464 
	C4106.482422,1399.756836 4068.256592,1305.455200 4023.735352,1213.672119 
	C3928.911133,1018.188354 3809.311279,839.414673 3663.310059,678.435303 
	C3503.903809,502.675262 3320.905762,356.669312 3112.451416,242.959030 
	C2964.972412,162.510269 2809.704590,101.811996 2646.649414,61.367474 
	C2570.339600,42.439468 2493.175049,27.663359 2414.918457,19.391174 
	C2373.886719,15.053874 2332.736816,11.837244 2289.668213,7.040656 
	C2287.696289,5.966793 2288.000000,4.000000 2288.000000,4.000000 
	C2977.092041,4.000000 3666.183838,4.000000 4356.000000,4.000000 
	C4356.000000,978.750122 4356.000000,1953.500488 4354.694336,2929.551514 
	C4352.337891,2919.366943 4345.483887,2911.312256 4336.310059,2905.905029 
	C4329.152344,2901.686035 4320.889648,2898.677002 4312.732910,2896.965820 
	C4299.330078,2894.154541 4285.615723,2892.830322 4271.986328,2889.090820 
	C4272.038574,2882.661621 4272.230469,2878.020508 4272.222656,2873.379639 
	C4272.140137,2822.918701 4259.480957,2776.438965 4228.562012,2735.756592 
z"/>
<path fill="#1C1819" opacity="1.000000" stroke="none" 
	d="
M3449.867432,3916.000000 
	C3437.338623,3909.532227 3424.939453,3910.569580 3413.373291,3908.616455 
	C3356.301025,3898.979004 3299.083252,3890.198242 3241.910889,3881.154053 
	C3205.759277,3875.435059 3169.679688,3869.176270 3133.422119,3864.225098 
	C3051.148682,3852.989990 2987.956055,3792.773926 2969.943848,3714.997803 
	C2963.365479,3686.592041 2964.671631,3658.254883 2969.328125,3629.739746 
	C2978.551758,3573.257812 2987.333984,3516.703369 2996.355469,3460.187988 
	C3005.062012,3405.646729 3013.930664,3351.131104 3022.561768,3296.578125 
	C3031.192871,3242.026367 3039.562988,3187.432861 3048.147705,3132.873535 
	C3056.630127,3078.963867 3065.234863,3025.073486 3073.792969,2971.175781 
	C3077.653809,2946.860596 3081.531006,2922.548340 3087.985596,2897.219727 
	C3096.374512,2897.472656 3102.142334,2898.949707 3107.989990,2899.967041 
	C3122.298340,2902.455566 3136.644775,2904.726807 3150.974365,2907.094238 
	C3168.591797,2910.004639 3186.176270,2913.135010 3203.834229,2915.771484 
	C3217.572754,2917.822510 3231.451172,2918.942139 3245.179932,2921.046387 
	C3267.377441,2924.447998 3289.462158,2928.594238 3311.671631,2931.909668 
	C3331.943359,2934.935791 3352.101074,2938.579102 3372.477783,2941.138428 
	C3399.970947,2944.591064 3427.045166,2951.247559 3454.449219,2955.579590 
	C3485.133789,2960.430664 3516.048340,2963.818848 3546.747070,2968.587646 
	C3576.122314,2973.151123 3605.296875,2979.000488 3634.655273,2983.682373 
	C3667.938232,2988.990479 3701.432373,2992.936768 3734.499268,2999.655518 
	C3744.200928,3001.626709 3754.094727,3003.496826 3763.933838,3003.686523 
	C3772.174805,3003.845215 3779.599609,3006.181885 3787.573975,3008.098877 
	C3787.894043,3007.927002 3788.577637,3007.691650 3788.138672,3009.290527 
	C3786.252197,3020.056396 3784.872314,3029.234375 3783.345459,3038.388184 
	C3777.123047,3075.698486 3770.582275,3112.958252 3764.681152,3150.319336 
	C3758.572021,3188.999023 3753.333252,3227.816162 3747.221436,3266.495605 
	C3741.318359,3303.854980 3734.679443,3341.098145 3728.599365,3378.430420 
	C3726.790771,3389.535156 3725.777588,3400.769043 3724.104004,3413.569336 
	C3718.124512,3451.308105 3712.471436,3487.426514 3706.750000,3523.533936 
	C3696.348389,3589.180908 3685.991943,3654.835449 3675.424561,3720.455566 
	C3672.573730,3738.157715 3670.533203,3756.185547 3665.544922,3773.314209 
	C3643.998779,3847.299805 3595.036133,3893.247559 3520.430176,3912.126709 
	C3517.482178,3912.872559 3514.803955,3914.684814 3512.000000,3916.000000 
	C3491.911621,3916.000000 3471.823242,3916.000000 3449.867432,3916.000000 
z"/>
<path fill="#1C1819" opacity="1.000000" stroke="none" 
	d="
M1279.761353,2896.010498 
	C1282.440796,2910.375488 1285.426147,2924.691406 1287.747070,2939.114258 
	C1298.114502,3003.539062 1308.341797,3067.986572 1318.523560,3132.441162 
	C1327.147217,3187.033691 1335.575195,3241.656982 1344.208984,3296.248047 
	C1351.488403,3342.276855 1358.982178,3388.271729 1366.302002,3434.294189 
	C1373.519165,3479.670898 1380.625000,3525.065430 1387.803711,3570.448242 
	C1391.340820,3592.807617 1395.083984,3615.135254 1398.469727,3637.517334 
	C1407.761108,3698.941406 1393.777100,3753.980957 1352.379150,3801.021240 
	C1321.709229,3835.871338 1282.820679,3856.272705 1237.160522,3863.633789 
	C1154.348755,3876.984375 1071.492554,3890.059082 988.652039,3903.230713 
	C970.897278,3906.053711 953.130188,3908.799072 932.256592,3911.529297 
	C923.135010,3911.868652 916.986328,3911.730713 912.000000,3916.000000 
	C894.572388,3916.000000 877.144775,3916.000000 856.939941,3914.799316 
	C768.692200,3898.274902 706.799377,3830.130371 695.612488,3747.628418 
	C688.367554,3694.197510 679.021606,3641.050781 670.583496,3587.781982 
	C661.314148,3529.265381 652.006042,3470.755127 642.942932,3410.684814 
	C642.121704,3403.922852 640.867554,3398.749268 640.059143,3393.507324 
	C636.821472,3372.511475 633.855164,3351.473633 630.539856,3330.490234 
	C625.775024,3300.333008 620.700195,3270.224854 615.931396,3240.068115 
	C611.472412,3211.870361 607.415222,3183.608154 602.864441,3155.425537 
	C596.833740,3118.078613 590.341370,3080.806152 584.379333,3043.448730 
	C582.503357,3031.694336 581.695190,3019.769287 581.976379,3007.728516 
	C588.695923,3006.357178 593.788208,3004.855957 598.988647,3004.066162 
	C612.047119,3002.083008 625.180298,3000.589111 638.235107,2998.583496 
	C651.282654,2996.578857 664.246399,2994.029297 677.291870,2992.008545 
	C696.877625,2988.974121 716.545593,2986.455078 736.100769,2983.242432 
	C765.411743,2978.427490 794.607666,2972.903076 823.940918,2968.236084 
	C852.639526,2963.669922 881.451172,2959.815430 910.208130,2955.614014 
	C920.662598,2954.086670 931.137817,2952.660645 941.541321,2950.833984 
	C961.050171,2947.408203 980.451721,2943.332275 1000.010681,2940.239746 
	C1028.714355,2935.701660 1057.519531,2931.807373 1086.276123,2927.602295 
	C1096.729980,2926.073486 1107.182983,2924.529053 1117.610718,2922.833984 
	C1131.292236,2920.610107 1144.932373,2918.130371 1158.620361,2915.948975 
	C1170.362061,2914.077881 1182.167480,2912.605469 1193.905518,2910.713379 
	C1206.938477,2908.612549 1219.923462,2906.216797 1232.935303,2903.984375 
	C1248.540771,2901.307373 1264.152466,2898.666992 1279.761353,2896.010498 
z"/>
<path fill="#FEFFFF" opacity="1.000000" stroke="none" 
	d="
M642.714844,3412.241699 
	C652.006042,3470.755127 661.314148,3529.265381 670.583496,3587.781982 
	C679.021606,3641.050781 688.367554,3694.197510 695.612488,3747.628418 
	C706.799377,3830.130371 768.692200,3898.274902 855.081360,3914.799316 
	C572.274475,3916.000000 288.548920,3916.000000 4.000000,3916.000000 
	C4.000000,3597.250244 4.000000,3278.499756 5.563779,2958.077637 
	C8.531066,2959.310303 10.719095,2962.086670 11.215424,2965.138672 
	C15.666599,2992.506836 19.668961,3019.947754 24.121460,3047.315674 
	C26.553967,3062.267334 29.600319,3077.119385 32.143269,3093.679688 
	C38.933533,3140.481934 45.940643,3185.622803 52.992386,3230.756592 
	C53.399639,3233.363281 54.331898,3235.887451 54.745560,3238.493652 
	C58.011158,3259.068359 79.298317,3279.031250 105.654686,3276.572021 
	C122.099159,3275.037842 138.380569,3271.755859 155.194000,3270.883301 
	C156.884323,3276.301025 158.259644,3280.053711 159.326202,3283.892090 
	C186.409805,3381.353760 285.637726,3464.576416 414.923676,3446.827881 
	C448.472290,3442.222412 481.866058,3436.464355 515.288635,3430.978271 
	C526.346436,3429.163330 537.271423,3426.539551 549.967651,3424.411865 
	C574.898071,3420.995117 598.100891,3417.333740 621.348328,3413.981201 
	C628.407227,3412.963135 635.589172,3412.797607 642.714844,3412.241699 
z"/>
<path fill="#FEFFFF" opacity="1.000000" stroke="none" 
	d="
M3513.874512,3916.000000 
	C3514.803955,3914.684814 3517.482178,3912.872559 3520.430176,3912.126709 
	C3595.036133,3893.247559 3643.998779,3847.299805 3665.544922,3773.314209 
	C3670.533203,3756.185547 3672.573730,3738.157715 3675.424561,3720.455566 
	C3685.991943,3654.835449 3696.348389,3589.180908 3706.750000,3523.533936 
	C3712.471436,3487.426514 3718.124512,3451.308105 3725.777100,3413.504639 
	C3742.083252,3413.854980 3756.410889,3415.964600 3770.759766,3417.916748 
	C3787.042480,3420.131592 3803.343994,3422.205078 3820.952148,3425.245850 
	C3865.649902,3433.102539 3908.990479,3440.339111 3952.434570,3446.886475 
	C3974.929688,3450.276611 3997.873779,3450.991211 4020.175293,3446.890625 
	C4115.156250,3429.425781 4178.249023,3374.896484 4207.924316,3282.506836 
	C4209.344238,3278.087646 4211.049805,3273.760498 4214.303711,3269.786865 
	C4229.794922,3272.282715 4243.540527,3275.102783 4257.426758,3276.332520 
	C4287.113770,3278.961914 4307.201172,3263.448242 4312.737793,3233.907471 
	C4316.291016,3214.949707 4319.143066,3195.856445 4322.076172,3176.787842 
	C4326.418457,3148.551758 4330.553711,3120.283691 4335.348633,3090.448242 
	C4338.089355,3075.732910 4340.474121,3062.630127 4342.382324,3049.458252 
	C4345.912109,3025.091309 4349.162598,3000.683838 4353.400391,2976.259033 
	C4354.271484,2976.224854 4356.000000,2976.000000 4356.000000,2976.000000 
	C4356.000000,3289.025635 4356.000000,3602.051514 4356.000000,3916.000000 
	C4075.916992,3916.000000 3795.833252,3916.000000 3513.874512,3916.000000 
z"/>
<path fill="#252224" opacity="1.000000" stroke="none" 
	d="
M32.369843,3092.016357 
	C29.600319,3077.119385 26.553967,3062.267334 24.121460,3047.315674 
	C19.668961,3019.947754 15.666599,2992.506836 11.215424,2965.138672 
	C10.719095,2962.086670 8.531066,2959.310303 5.563779,2956.203125 
	C4.000000,2950.444336 4.000000,2944.888916 4.000000,2937.666504 
	C6.906622,2936.959473 9.038254,2936.035889 10.372330,2933.312256 
	C12.958831,2928.031982 14.850184,2922.261719 18.218678,2917.543457 
	C26.661846,2905.716797 38.740517,2899.317139 52.934978,2897.024170 
	C65.903732,2894.929443 78.930916,2893.197021 94.028954,2892.795898 
	C102.545029,2934.382568 109.109383,2974.455566 115.325859,3014.582520 
	C118.686043,3036.272461 121.451958,3058.054443 122.708725,3079.853027 
	C105.801338,3079.177979 91.418747,3084.087158 76.609848,3085.794678 
	C61.813572,3087.500977 47.466465,3092.421143 32.369843,3092.016357 
z"/>
<path fill="#242223" opacity="1.000000" stroke="none" 
	d="
M4352.529785,2976.293213 
	C4349.162598,3000.683838 4345.912109,3025.091309 4342.382324,3049.458252 
	C4340.474121,3062.630127 4338.089355,3075.732910 4333.682617,3090.455078 
	C4317.241699,3090.130127 4303.028320,3088.278320 4288.834961,3086.287842 
	C4273.352539,3084.116943 4257.888672,3081.817871 4241.738281,3079.614258 
	C4241.059570,3079.653809 4239.756836,3080.041992 4240.374023,3078.549316 
	C4241.544922,3075.145996 4242.312988,3073.269043 4242.622070,3071.318848 
	C4249.780273,3026.155518 4256.814453,2980.972168 4264.049805,2935.821045 
	C4266.457031,2920.799805 4269.357910,2905.857422 4272.033203,2890.878906 
	C4285.615723,2892.830322 4299.330078,2894.154541 4312.732910,2896.965820 
	C4320.889648,2898.677002 4329.152344,2901.686035 4336.310059,2905.905029 
	C4345.483887,2911.312256 4352.337891,2919.366943 4354.694336,2931.426270 
	C4356.000000,2938.857422 4356.000000,2945.714844 4354.889648,2955.333008 
	C4353.362793,2964.160156 4352.946289,2970.226562 4352.529785,2976.293213 
z"/>
<path fill="#90BBDA" opacity="1.000000" stroke="none" 
	d="
M2286.147217,4.000000 
	C2288.000000,4.000000 2287.696289,5.966793 2287.886230,6.943557 
	C2271.429443,7.466204 2254.782471,7.012088 2237.067871,5.278986 
	C2252.098145,4.000000 2268.196289,4.000000 2286.147217,4.000000 
z"/>
<path fill="#90BBDA" opacity="1.000000" stroke="none" 
	d="
M2081.687500,8.149082 
	C2079.855469,7.830168 2080.194824,5.925167 2080.097412,4.962584 
	C2096.098145,4.000000 2112.196289,4.000000 2130.147217,3.999993 
	C2129.104492,5.206172 2126.252930,7.319917 2123.305908,7.462525 
	C2110.058594,8.103597 2096.784180,8.184850 2081.687500,8.149082 
z"/>
<path fill="#A9ABAB" opacity="1.000000" stroke="none" 
	d="
M4353.400391,2976.259033 
	C4352.946289,2970.226562 4353.362793,2964.160156 4354.889648,2957.046875 
	C4356.000000,2961.555664 4356.000000,2967.111084 4356.000000,2974.333496 
	C4356.000000,2976.000000 4354.271484,2976.224854 4353.400391,2976.259033 
z"/>
<path fill="#97B1B2" opacity="1.000000" stroke="none" 
	d="
M913.666626,3916.000000 
	C916.986328,3911.730713 923.135010,3911.868652 930.643433,3911.804199 
	C932.142395,3912.129883 931.627869,3914.048584 931.813965,3915.024414 
	C926.444458,3916.000000 920.888855,3916.000000 913.666626,3916.000000 
z"/>
<path fill="#232021" opacity="1.000000" stroke="none" 
	d="
M687.593262,1015.493958 
	C685.819214,1006.406921 689.873596,1000.165527 693.741638,993.954163 
	C734.963806,927.759155 778.884338,863.467041 827.143433,802.133423 
	C873.329102,743.434814 922.530640,687.509827 974.654663,633.989563 
	C1077.897949,527.980591 1192.630859,436.411011 1317.841309,357.824158 
	C1360.172241,331.255646 1403.861206,306.960632 1448.469116,284.470825 
	C1566.663086,224.881165 1690.126709,179.380539 1819.119507,149.548218 
	C1861.191040,139.818253 1903.796265,132.141846 1946.425415,125.163879 
	C1975.254761,120.444832 2004.582886,118.843880 2033.635010,115.401085 
	C2104.604492,106.990921 2175.848389,106.931671 2247.095703,108.786331 
	C2274.310791,109.494759 2301.466553,112.731743 2328.630859,115.036888 
	C2343.204102,116.273560 2357.733154,118.022827 2372.289795,119.463387 
	C2430.626953,125.236519 2488.124268,136.079346 2545.201416,149.049622 
	C2638.886963,170.338715 2729.901367,200.164383 2818.192383,237.964981 
	C2899.751953,272.883820 2978.220459,313.874359 3053.561768,360.827759 
	C3116.967041,400.342407 3177.395264,444.018127 3235.532959,490.840088 
	C3306.229004,547.776245 3371.960449,610.165344 3433.481689,676.815552 
	C3512.699707,762.637573 3583.831299,854.865356 3647.072266,953.113220 
	C3655.003418,965.434631 3663.054932,977.692749 3670.500244,990.305237 
	C3673.459229,995.318359 3674.919922,1001.216248 3677.080566,1008.048035 
	C3659.368408,1027.566284 3638.022949,1039.451416 3613.139893,1044.067017 
	C3561.228027,1053.696777 3518.342529,1037.472046 3485.693359,996.253723 
	C3451.748047,953.399109 3417.020752,911.238770 3379.766357,871.233154 
	C3249.217285,731.043274 3099.901123,615.105408 2930.598145,525.257019 
	C2821.407227,467.309784 2707.118896,422.183319 2587.526367,390.622833 
	C2521.142334,373.104126 2453.932861,360.107117 2385.844238,351.104553 
	C2308.392822,340.864014 2230.651123,337.002960 2152.653564,338.503571 
	C2088.028076,339.746918 2023.751221,345.560577 1959.724487,354.899933 
	C1784.168823,380.507477 1617.948975,434.892883 1460.355591,515.887695 
	C1320.240601,587.899597 1192.900879,678.135254 1078.100586,786.059204 
	C1008.040527,851.922791 943.423218,922.710754 885.247498,999.290894 
	C868.283081,1021.622192 848.071655,1039.440796 821.071960,1048.030762 
	C770.799744,1064.025024 726.547852,1053.304077 687.593262,1015.493958 
z"/>
<path fill="#231F20" opacity="1.000000" stroke="none" 
	d="
M1279.965698,2894.323242 
	C1264.152466,2898.666992 1248.540771,2901.307373 1232.935303,2903.984375 
	C1219.923462,2906.216797 1206.938477,2908.612549 1193.905518,2910.713379 
	C1182.167480,2912.605469 1170.362061,2914.077881 1158.620361,2915.948975 
	C1144.932373,2918.130371 1131.292236,2920.610107 1117.610718,2922.833984 
	C1107.182983,2924.529053 1096.729980,2926.073486 1086.276123,2927.602295 
	C1057.519531,2931.807373 1028.714355,2935.701660 1000.010681,2940.239746 
	C980.451721,2943.332275 961.050171,2947.408203 941.541321,2950.833984 
	C931.137817,2952.660645 920.662598,2954.086670 910.208130,2955.614014 
	C881.451172,2959.815430 852.639526,2963.669922 823.940918,2968.236084 
	C794.607666,2972.903076 765.411743,2978.427490 736.100769,2983.242432 
	C716.545593,2986.455078 696.877625,2988.974121 677.291870,2992.008545 
	C664.246399,2994.029297 651.282654,2996.578857 638.235107,2998.583496 
	C625.180298,3000.589111 612.047119,3002.083008 598.988647,3004.066162 
	C593.788208,3004.855957 588.695923,3006.357178 581.316650,3007.572998 
	C579.078796,3007.611328 577.726807,3007.557861 577.560913,3005.805664 
	C576.109070,2994.173584 575.038025,2984.259521 573.498901,2974.419189 
	C567.854980,2938.333496 561.950378,2902.288574 556.347107,2866.196777 
	C551.660095,2836.006836 547.445679,2805.742676 542.684814,2775.564697 
	C535.234436,2728.338379 527.590210,2681.142334 519.805481,2633.969971 
	C518.314148,2624.933105 518.112183,2615.475830 513.097961,2607.285889 
	C512.401428,2598.065430 512.312073,2588.750977 510.907074,2579.639893 
	C503.299225,2530.303711 495.410187,2481.010986 487.532867,2431.716797 
	C478.921356,2377.827881 470.044189,2323.981201 461.599609,2270.066406 
	C452.391388,2211.276123 463.606079,2157.373779 501.755310,2110.547363 
	C534.393494,2070.485840 577.097595,2048.251221 627.875671,2040.390137 
	C693.644958,2030.208130 759.342224,2019.561523 825.084473,2009.203979 
	C866.509155,2002.677490 907.829407,1995.256348 949.430542,1990.139038 
	C1004.369202,1983.380859 1053.724976,1998.570557 1096.325073,2033.858398 
	C1134.350952,2065.356934 1156.053711,2106.397949 1163.764893,2154.999268 
	C1176.801636,2237.165771 1189.899780,2319.322510 1202.844360,2401.503662 
	C1214.132935,2473.171387 1225.150269,2544.881592 1236.464111,2616.545166 
	C1246.324097,2678.999268 1256.478394,2741.407227 1266.406982,2803.850586 
	C1271.109863,2833.427246 1275.589355,2863.039551 1279.965698,2894.323242 
z"/>
<path fill="#231F20" opacity="1.000000" stroke="none" 
	d="
M3787.253906,3008.270752 
	C3779.599609,3006.181885 3772.174805,3003.845215 3763.933838,3003.686523 
	C3754.094727,3003.496826 3744.200928,3001.626709 3734.499268,2999.655518 
	C3701.432373,2992.936768 3667.938232,2988.990479 3634.655273,2983.682373 
	C3605.296875,2979.000488 3576.122314,2973.151123 3546.747070,2968.587646 
	C3516.048340,2963.818848 3485.133789,2960.430664 3454.449219,2955.579590 
	C3427.045166,2951.247559 3399.970947,2944.591064 3372.477783,2941.138428 
	C3352.101074,2938.579102 3331.943359,2934.935791 3311.671631,2931.909668 
	C3289.462158,2928.594238 3267.377441,2924.447998 3245.179932,2921.046387 
	C3231.451172,2918.942139 3217.572754,2917.822510 3203.834229,2915.771484 
	C3186.176270,2913.135010 3168.591797,2910.004639 3150.974365,2907.094238 
	C3136.644775,2904.726807 3122.298340,2902.455566 3107.989990,2899.967041 
	C3102.142334,2898.949707 3096.374512,2897.472656 3088.921875,2895.962158 
	C3089.109131,2880.561035 3090.493652,2865.332275 3092.854004,2850.255859 
	C3107.364014,2757.571045 3122.020508,2664.908691 3136.772705,2572.261963 
	C3152.152588,2475.672852 3167.744629,2379.117676 3183.146973,2282.531982 
	C3190.167480,2238.508545 3196.696533,2194.405273 3203.904053,2150.413086 
	C3217.803711,2065.575684 3284.645020,2003.995972 3362.276367,1991.473389 
	C3382.825195,1988.158691 3403.243408,1987.722778 3423.841309,1991.036011 
	C3482.307129,2000.439941 3540.807373,2009.631226 3599.307617,2018.819214 
	C3645.321777,2026.046021 3691.350098,2033.183228 3737.383057,2040.288818 
	C3810.852539,2051.629639 3863.849365,2090.249512 3893.589600,2158.836182 
	C3908.515381,2193.258545 3911.498779,2229.289307 3905.439209,2266.450684 
	C3893.659668,2338.692871 3882.683105,2411.065918 3871.364502,2483.383301 
	C3865.091309,2523.464355 3858.799805,2563.542480 3851.897461,2606.735840 
	C3850.637695,2611.735596 3849.704346,2613.575439 3849.399414,2615.514404 
	C3843.635254,2652.177734 3837.915527,2688.848145 3832.246582,2725.526367 
	C3825.159668,2771.375732 3818.315674,2817.263672 3811.021240,2863.079834 
	C3803.310791,2911.510498 3795.193359,2959.876465 3787.253906,3008.270752 
z"/>
<path fill="#01BADB" opacity="1.000000" stroke="none" 
	d="
M4271.986328,2889.090820 
	C4269.357910,2905.857422 4266.457031,2920.799805 4264.049805,2935.821045 
	C4256.814453,2980.972168 4249.780273,3026.155518 4242.622070,3071.318848 
	C4242.312988,3073.269043 4241.544922,3075.145996 4238.782227,3078.302490 
	C4232.750488,3078.453857 4228.991699,3076.886475 4225.091797,3076.351807 
	C4211.983398,3074.553467 4198.767578,3073.491699 4185.695801,3071.478760 
	C4153.031250,3066.449463 4120.428711,3061.022949 4087.790771,3055.818848 
	C4076.690430,3054.048584 4065.525146,3052.668457 4054.450928,3050.755371 
	C4034.910889,3047.380127 4015.450684,3043.538818 3995.896973,3040.249268 
	C3971.783691,3036.192383 3947.634521,3032.328369 3923.450439,3028.717773 
	C3910.374268,3026.765381 3897.192871,3025.515625 3883.851074,3023.053711 
	C3883.643066,3022.158447 3883.163574,3020.383789 3883.462891,3018.705078 
	C3890.649170,2973.353027 3897.479492,2929.671143 3904.459229,2886.012939 
	C3906.436279,2873.647217 3908.946045,2861.367920 3911.037842,2849.019287 
	C3914.014893,2831.446289 3917.017090,2813.874268 3919.668457,2796.250488 
	C3922.908691,2774.709961 3925.187500,2753.008789 3928.974121,2731.569824 
	C3935.405273,2695.157715 3941.444580,2658.708008 3945.433594,2621.938721 
	C3951.693359,2622.502930 3957.953125,2623.067139 3965.773682,2623.675293 
	C3966.006836,2636.859863 3965.087891,2650.057373 3963.264893,2663.128662 
	C3959.702393,2688.672363 3955.835693,2714.178223 3951.711182,2739.637939 
	C3948.538330,2759.224609 3944.547363,2778.678467 3941.363525,2798.263672 
	C3939.347168,2810.666504 3936.066895,2823.353027 3936.964355,2835.648926 
	C3939.692871,2873.039062 3947.883301,2908.970215 3970.653564,2940.232666 
	C3997.230469,2976.722168 4032.583008,2999.636719 4076.208008,3009.939453 
	C4087.760742,3012.667725 4099.784180,3015.869629 4111.425293,3015.321045 
	C4156.705078,3013.187988 4187.649902,2988.422852 4195.778809,2942.887695 
	C4201.125488,2912.937744 4206.144043,2882.926758 4211.004395,2852.893555 
	C4214.281250,2832.644043 4217.000488,2812.303955 4220.016113,2792.011719 
	C4222.640625,2774.351807 4225.333008,2756.701660 4228.278320,2737.401855 
	C4259.480957,2776.438965 4272.140137,2822.918701 4272.222656,2873.379639 
	C4272.230469,2878.020508 4272.038574,2882.661621 4271.986328,2889.090820 
z"/>
<path fill="#01B9DB" opacity="1.000000" stroke="none" 
	d="
M124.485985,3079.794922 
	C121.451958,3058.054443 118.686043,3036.272461 115.325859,3014.582520 
	C109.109383,2974.455566 102.545029,2934.382568 95.702148,2892.613525 
	C94.862236,2870.399414 94.178413,2849.853516 97.916679,2829.484131 
	C103.981621,2796.437256 116.213562,2765.947021 136.412292,2737.284180 
	C139.457108,2746.511230 142.282013,2756.718506 143.570938,2767.116211 
	C148.785278,2809.177246 155.530731,2850.980713 163.234909,2892.648926 
	C166.484375,2910.223633 169.169983,2927.906006 171.911606,2945.570801 
	C178.413361,2987.462891 207.917542,3009.381348 247.810944,3015.572266 
	C249.764923,3015.875244 251.817337,3015.846680 253.793777,3015.657715 
	C300.725250,3011.167480 342.442444,2995.840576 376.966766,2961.800537 
	C405.320892,2933.843750 420.643738,2899.904053 427.001740,2861.985352 
	C430.247620,2842.627197 429.763031,2822.337646 425.660126,2802.450439 
	C421.650604,2783.015381 419.109009,2763.275391 416.006683,2743.655762 
	C412.286835,2720.131104 408.422760,2696.625244 405.069946,2673.047363 
	C402.926392,2657.973633 401.595093,2642.784424 399.972412,2625.917236 
	C405.369232,2623.529785 410.693268,2622.871826 417.939575,2623.994141 
	C425.238770,2658.307861 430.725006,2690.823242 435.953064,2723.380371 
	C439.299194,2744.218506 442.062927,2765.150146 445.458435,2785.979736 
	C448.641022,2805.503174 452.679321,2824.891113 455.681763,2844.439697 
	C460.287506,2874.427002 463.881622,2904.573975 468.737335,2934.518066 
	C473.382050,2963.160889 479.089050,2991.631836 484.128143,3021.044434 
	C483.927124,3021.910400 483.561646,3023.650879 481.892670,3023.751465 
	C476.909973,3024.005859 473.545471,3023.843750 470.291138,3024.366699 
	C454.683746,3026.875732 439.121552,3029.665771 423.514008,3032.173828 
	C404.645020,3035.206055 385.726471,3037.931641 366.865601,3041.011230 
	C336.967712,3045.893311 307.105835,3050.994873 277.217590,3055.936279 
	C254.480057,3059.695068 231.733582,3063.401855 208.974625,3067.028564 
	C197.905350,3068.792480 186.827072,3070.558350 175.701660,3071.898193 
	C159.323654,3073.870361 142.991974,3075.982178 126.440315,3080.372559 
	C125.790581,3080.174316 124.485985,3079.794922 124.485985,3079.794922 
z"/>
<path fill="#01859C" opacity="1.000000" stroke="none" 
	d="
M3944.017822,2621.249023 
	C3941.444580,2658.708008 3935.405273,2695.157715 3928.974121,2731.569824 
	C3925.187500,2753.008789 3922.908691,2774.709961 3919.668457,2796.250488 
	C3917.017090,2813.874268 3914.014893,2831.446289 3911.037842,2849.019287 
	C3908.946045,2861.367920 3906.436279,2873.647217 3904.459229,2886.012939 
	C3897.479492,2929.671143 3890.649170,2973.353027 3881.757812,3018.612793 
	C3872.520996,3020.012207 3865.168213,3020.596680 3858.077393,3019.496094 
	C3834.859619,3015.891357 3811.736816,3011.673828 3788.577637,3007.691650 
	C3788.577637,3007.691650 3787.894043,3007.927002 3787.573975,3008.098877 
	C3795.193359,2959.876465 3803.310791,2911.510498 3811.021240,2863.079834 
	C3818.315674,2817.263672 3825.159668,2771.375732 3832.246582,2725.526367 
	C3837.915527,2688.848145 3843.635254,2652.177734 3849.399414,2615.514404 
	C3849.704346,2613.575439 3850.637695,2611.735596 3852.008301,2608.321777 
	C3882.692871,2611.382568 3912.647461,2615.971191 3944.017822,2621.249023 
z"/>
<path fill="#01859C" opacity="1.000000" stroke="none" 
	d="
M484.329163,3020.178223 
	C479.089050,2991.631836 473.382050,2963.160889 468.737335,2934.518066 
	C463.881622,2904.573975 460.287506,2874.427002 455.681763,2844.439697 
	C452.679321,2824.891113 448.641022,2805.503174 445.458435,2785.979736 
	C442.062927,2765.150146 439.299194,2744.218506 435.953064,2723.380371 
	C430.725006,2690.823242 425.238770,2658.307861 419.552521,2624.016113 
	C449.301239,2617.260742 479.359314,2612.263672 511.257690,2607.276367 
	C518.112183,2615.475830 518.314148,2624.933105 519.805481,2633.969971 
	C527.590210,2681.142334 535.234436,2728.338379 542.684814,2775.564697 
	C547.445679,2805.742676 551.660095,2836.006836 556.347107,2866.196777 
	C561.950378,2902.288574 567.854980,2938.333496 573.498901,2974.419189 
	C575.038025,2984.259521 576.109070,2994.173584 575.751343,3005.978516 
	C563.720154,3009.576416 553.210144,3010.710938 542.971252,3013.038086 
	C523.635864,3017.433350 504.254303,3020.882324 484.329163,3020.178223 
z"/>
<path fill="#01697B" opacity="1.000000" stroke="none" 
	d="
M3788.138672,3009.290527 
	C3811.736816,3011.673828 3834.859619,3015.891357 3858.077393,3019.496094 
	C3865.168213,3020.596680 3872.520996,3020.012207 3881.458496,3020.291504 
	C3883.163574,3020.383789 3883.643066,3022.158447 3883.596191,3024.650635 
	C3882.721924,3029.667236 3881.532227,3032.134766 3881.123047,3034.725098 
	C3876.690186,3062.788330 3872.301270,3090.858887 3868.062256,3118.951660 
	C3865.005127,3139.211426 3862.501709,3159.559082 3859.180176,3179.773438 
	C3855.967529,3199.326416 3851.534180,3218.683838 3848.513184,3238.262207 
	C3843.776855,3268.958496 3840.118164,3299.821045 3835.370361,3330.515381 
	C3830.523193,3361.851562 3824.913086,3393.069824 3819.637207,3424.339844 
	C3803.343994,3422.205078 3787.042480,3420.131592 3770.759766,3417.916748 
	C3756.410889,3415.964600 3742.083252,3413.854980 3726.073242,3411.879395 
	C3725.777588,3400.769043 3726.790771,3389.535156 3728.599365,3378.430420 
	C3734.679443,3341.098145 3741.318359,3303.854980 3747.221436,3266.495605 
	C3753.333252,3227.816162 3758.572021,3188.999023 3764.681152,3150.319336 
	C3770.582275,3112.958252 3777.123047,3075.698486 3783.345459,3038.388184 
	C3784.872314,3029.234375 3786.252197,3020.056396 3788.138672,3009.290527 
z"/>
<path fill="#01697B" opacity="1.000000" stroke="none" 
	d="
M484.128113,3021.044434 
	C504.254303,3020.882324 523.635864,3017.433350 542.971252,3013.038086 
	C553.210144,3010.710938 563.720154,3009.576416 575.917236,3007.730469 
	C577.726807,3007.557861 579.078796,3007.611328 579.738525,3007.766846 
	C581.695190,3019.769287 582.503357,3031.694336 584.379333,3043.448730 
	C590.341370,3080.806152 596.833740,3118.078613 602.864441,3155.425537 
	C607.415222,3183.608154 611.472412,3211.870361 615.931396,3240.068115 
	C620.700195,3270.224854 625.775024,3300.333008 630.539856,3330.490234 
	C633.855164,3351.473633 636.821472,3372.511475 640.059143,3393.507324 
	C640.867554,3398.749268 642.121704,3403.922852 642.942871,3410.684570 
	C635.589172,3412.797607 628.407227,3412.963135 621.348328,3413.981201 
	C598.100891,3417.333740 574.898071,3420.995117 549.273804,3422.931152 
	C544.726807,3409.654541 542.309814,3398.027100 540.492432,3386.307129 
	C534.815979,3349.698975 529.377686,3313.054199 523.821594,3276.427246 
	C522.036072,3264.657227 520.243225,3252.887207 518.323547,3241.138428 
	C516.297180,3228.737061 513.949890,3216.386963 512.038818,3203.968750 
	C508.918884,3183.695557 506.277222,3163.346680 503.001343,3143.099854 
	C498.249420,3113.729492 493.050140,3084.432129 488.173492,3055.081543 
	C486.438202,3044.637695 485.087769,3034.129639 483.561646,3023.650879 
	C483.561646,3023.650879 483.927124,3021.910400 484.128113,3021.044434 
z"/>
<path fill="#0193AD" opacity="1.000000" stroke="none" 
	d="
M481.892670,3023.751465 
	C485.087769,3034.129639 486.438202,3044.637695 488.173492,3055.081543 
	C493.050140,3084.432129 498.249420,3113.729492 503.001343,3143.099854 
	C506.277222,3163.346680 508.918884,3183.695557 512.038818,3203.968750 
	C513.949890,3216.386963 516.297180,3228.737061 518.323547,3241.138428 
	C520.243225,3252.887207 522.036072,3264.657227 523.821594,3276.427246 
	C529.377686,3313.054199 534.815979,3349.698975 540.492432,3386.307129 
	C542.309814,3398.027100 544.726807,3409.654541 547.563354,3422.805176 
	C537.271423,3426.539551 526.346436,3429.163330 515.288635,3430.978271 
	C481.866058,3436.464355 448.472290,3442.222412 414.923676,3446.827881 
	C285.637726,3464.576416 186.409805,3381.353760 159.326202,3283.892090 
	C158.259644,3280.053711 156.884323,3276.301025 155.380905,3269.450195 
	C154.134201,3260.548340 153.109161,3254.712891 152.192993,3248.860352 
	C147.398071,3218.227783 142.487244,3187.612549 137.898392,3156.949219 
	C134.092850,3131.520020 130.678009,3106.032471 127.090065,3080.570801 
	C142.991974,3075.982178 159.323654,3073.870361 175.701660,3071.898193 
	C186.827072,3070.558350 197.905350,3068.792480 208.974625,3067.028564 
	C231.733582,3063.401855 254.480057,3059.695068 277.217590,3055.936279 
	C307.105835,3050.994873 336.967712,3045.893311 366.865601,3041.011230 
	C385.726471,3037.931641 404.645020,3035.206055 423.514008,3032.173828 
	C439.121552,3029.665771 454.683746,3026.875732 470.291138,3024.366699 
	C473.545471,3023.843750 476.909973,3024.005859 481.892670,3023.751465 
z"/>
<path fill="#1E1B1C" opacity="1.000000" stroke="none" 
	d="
M126.440331,3080.372559 
	C130.678009,3106.032471 134.092850,3131.520020 137.898392,3156.949219 
	C142.487244,3187.612549 147.398071,3218.227783 152.192993,3248.860352 
	C153.109161,3254.712891 154.134201,3260.548340 154.922058,3267.824951 
	C138.380569,3271.755859 122.099159,3275.037842 105.654686,3276.572021 
	C79.298317,3279.031250 58.011158,3259.068359 54.745560,3238.493652 
	C54.331898,3235.887451 53.399639,3233.363281 52.992386,3230.756592 
	C45.940643,3185.622803 38.933533,3140.481934 32.143257,3093.679688 
	C47.466465,3092.421143 61.813572,3087.500977 76.609848,3085.794678 
	C91.418747,3084.087158 105.801338,3079.177979 122.708725,3079.853027 
	C124.485985,3079.794922 125.790581,3080.174316 126.440331,3080.372559 
z"/>
<path fill="#0193AD" opacity="1.000000" stroke="none" 
	d="
M3820.951904,3425.245850 
	C3824.913086,3393.069824 3830.523193,3361.851562 3835.370361,3330.515381 
	C3840.118164,3299.821045 3843.776855,3268.958496 3848.513184,3238.262207 
	C3851.534180,3218.683838 3855.967529,3199.326416 3859.180176,3179.773438 
	C3862.501709,3159.559082 3865.005127,3139.211426 3868.062256,3118.951660 
	C3872.301270,3090.858887 3876.690186,3062.788330 3881.123047,3034.725098 
	C3881.532227,3032.134766 3882.721924,3029.667236 3883.804199,3025.545898 
	C3897.192871,3025.515625 3910.374268,3026.765381 3923.450439,3028.717773 
	C3947.634521,3032.328369 3971.783691,3036.192383 3995.896973,3040.249268 
	C4015.450684,3043.538818 4034.910889,3047.380127 4054.450928,3050.755371 
	C4065.525146,3052.668457 4076.690430,3054.048584 4087.790771,3055.818848 
	C4120.428711,3061.022949 4153.031250,3066.449463 4185.695801,3071.478760 
	C4198.767578,3073.491699 4211.983398,3074.553467 4225.091797,3076.351807 
	C4228.991699,3076.886475 4232.750488,3078.453857 4238.165039,3079.794922 
	C4239.756836,3080.041992 4241.059570,3079.653809 4240.972656,3081.216797 
	C4233.027344,3131.203857 4225.028320,3179.605469 4217.401855,3228.065918 
	C4215.248047,3241.752441 4214.185059,3255.610840 4212.622070,3269.390381 
	C4211.049805,3273.760498 4209.344238,3278.087646 4207.924316,3282.506836 
	C4178.249023,3374.896484 4115.156250,3429.425781 4020.175293,3446.890625 
	C3997.873779,3450.991211 3974.929688,3450.276611 3952.434570,3446.886475 
	C3908.990479,3440.339111 3865.649902,3433.102539 3820.951904,3425.245850 
z"/>
<path fill="#1D1B1C" opacity="1.000000" stroke="none" 
	d="
M4214.303711,3269.786865 
	C4214.185059,3255.610840 4215.248047,3241.752441 4217.401855,3228.065918 
	C4225.028320,3179.605469 4233.027344,3131.203857 4241.650879,3081.177246 
	C4257.888672,3081.817871 4273.352539,3084.116943 4288.834961,3086.287842 
	C4303.028320,3088.278320 4317.241699,3090.130127 4333.111816,3092.036133 
	C4330.553711,3120.283691 4326.418457,3148.551758 4322.076172,3176.787842 
	C4319.143066,3195.856445 4316.291016,3214.949707 4312.737793,3233.907471 
	C4307.201172,3263.448242 4287.113770,3278.961914 4257.426758,3276.332520 
	C4243.540527,3275.102783 4229.794922,3272.282715 4214.303711,3269.786865 
z"/>
</svg>